<?xml version="1.0" encoding="UTF-8" standalone="no"?>
<svg
   xmlns:dc="http://purl.org/dc/elements/1.1/"
   xmlns:cc="http://creativecommons.org/ns#"
   xmlns:rdf="http://www.w3.org/1999/02/22-rdf-syntax-ns#"
   xmlns:svg="http://www.w3.org/2000/svg"
   xmlns="http://www.w3.org/2000/svg"
   xmlns:sodipodi="http://sodipodi.sourceforge.net/DTD/sodipodi-0.dtd"
   xmlns:inkscape="http://www.inkscape.org/namespaces/inkscape"
   viewBox="-110 1 511 511.99996"
   version="1.1"
   id="svg3763"
   sodipodi:docname="facebook.svg"
   inkscape:version="0.92.5 (2060ec1f9f, 2020-04-08)">
  <metadata
     id="metadata3769">
    <rdf:RDF>
      <cc:Work
         rdf:about="">
        <dc:format>image/svg+xml</dc:format>
        <dc:type
           rdf:resource="http://purl.org/dc/dcmitype/StillImage" />
      </cc:Work>
    </rdf:RDF>
  </metadata>
  <defs
     id="defs3767" />
  <sodipodi:namedview
     pagecolor="#ffffff"
     bordercolor="#666666"
     borderopacity="1"
     objecttolerance="10"
     gridtolerance="10"
     guidetolerance="10"
     inkscape:pageopacity="0"
     inkscape:pageshadow="2"
     inkscape:window-width="1366"
     inkscape:window-height="744"
     id="namedview3765"
     showgrid="false"
     inkscape:zoom="1.0859376"
     inkscape:cx="255.5"
     inkscape:cy="255.99998"
     inkscape:window-x="0"
     inkscape:window-y="0"
     inkscape:window-maximized="1"
     inkscape:current-layer="svg3763" />
  <path
     d="m180 512h-81.992188c-13.695312 0-24.835937-11.140625-24.835937-24.835938v-184.9375h-47.835937c-13.695313 0-24.835938-11.144531-24.835938-24.835937v-79.246094c0-13.695312 11.140625-24.835937 24.835938-24.835937h47.835937v-39.683594c0-39.347656 12.355469-72.824219 35.726563-96.804688 23.476562-24.089843 56.285156-36.820312 94.878906-36.820312l62.53125.101562c13.671875.023438 24.792968 11.164063 24.792968 24.835938v73.578125c0 13.695313-11.136718 24.835937-24.828124 24.835937l-42.101563.015626c-12.839844 0-16.109375 2.574218-16.808594 3.363281-1.152343 1.308593-2.523437 5.007812-2.523437 15.222656v31.351563h58.269531c4.386719 0 8.636719 1.082031 12.289063 3.121093 7.878906 4.402344 12.777343 12.726563 12.777343 21.722657l-.03125 79.246093c0 13.6875-11.140625 24.828125-24.835937 24.828125h-58.46875v184.941406c0 13.695313-11.144532 24.835938-24.839844 24.835938zm-76.8125-30.015625h71.632812v-193.195313c0-9.144531 7.441407-16.582031 16.582032-16.582031h66.726562l.027344-68.882812h-66.757812c-9.140626 0-16.578126-7.4375-16.578126-16.582031v-44.789063c0-11.726563 1.191407-25.0625 10.042969-35.085937 10.695313-12.117188 27.550781-13.515626 39.300781-13.515626l36.921876-.015624v-63.226563l-57.332032-.09375c-62.023437 0-100.566406 39.703125-100.566406 103.609375v53.117188c0 9.140624-7.4375 16.582031-16.578125 16.582031h-56.09375v68.882812h56.09375c9.140625 0 16.578125 7.4375 16.578125 16.582031zm163.0625-451.867187h.003906zm0 0"
     id="path3761"
     style="fill:#e6e6e6" />
  <path
     style="fill:#2b0000;fill-opacity:1;stroke-width:0.92086321"
     d="m 203.37914,510.42227 c -8.63197,-1.81436 -16.48424,-8.88304 -18.89844,-17.01252 -1.16125,-3.91036 -1.36055,-18.31596 -1.36055,-98.34238 v -93.76091 h -25.1566 c -28.85813,0 -31.87397,-0.50369 -38.63177,-6.45215 -2.31069,-2.03394 -5.16834,-5.66177 -6.35032,-8.06181 -2.14684,-4.3592 -2.14936,-4.40911 -2.42158,-47.95381 -0.31143,-49.81487 -0.22756,-50.56209 6.49325,-57.85331 7.45578,-8.08856 7.51188,-8.10078 38.67134,-8.42001 l 27.39568,-0.28068 0.0238,-23.20133 c 0.0338,-33.01251 1.57636,-46.33789 7.52653,-65.018032 3.69144,-11.588986 7.9191,-20.664358 13.90206,-29.843016 16.67265,-25.578111 40.60483,-42.536641 70.99366,-50.306685 16.58448,-4.24044255 25.56352,-4.82780911 68.70505,-4.49436358 38.14442,0.29482237 39.23167,0.35333255 42.88296,2.30774808 2.06045,1.1028911 5.31223,3.7385824 7.22617,5.8570922 6.74475,7.4656333 6.52396,5.6748553 6.52396,52.9146243 0,41.045052 -0.0598,42.488312 -1.9263,46.503592 -2.87099,6.17614 -6.30721,9.74114 -12.15913,12.61482 l -5.25269,2.57942 -29.97182,0.46044 c -33.68111,0.51741 -34.00094,0.58105 -35.81908,7.12797 -0.52878,1.90407 -0.96373,12.26771 -0.96655,23.0303 l -0.005,19.56834 h 30.68178 c 34.55349,0 37.07921,0.35393 43.84345,6.14387 2.20832,1.89025 4.96939,5.50727 6.16661,8.0783 l 2.16786,4.65553 -0.0112,45.58273 c -0.0104,42.13648 -0.13817,45.86121 -1.69034,49.26618 -2.49849,5.48088 -6.24451,9.46229 -11.52269,12.24671 l -4.71457,2.4871 -32.46043,0.28397 -32.46043,0.28396 v 93.70716 c 0,80.48507 -0.1943,94.36144 -1.37703,98.34413 -1.72914,5.82266 -7.31001,12.27534 -13.10779,15.15542 l -4.39287,2.18217 -44.66187,0.14844 c -24.56403,0.0817 -46.11223,-0.15641 -47.88489,-0.52901 z m 81.95683,-128.0199 c 0,-67.51397 0.30879,-99.28741 0.9822,-101.06474 1.23189,-3.2513 4.18653,-6.46055 7.766,-8.4352 2.41009,-1.32956 7.31563,-1.55974 38.44604,-1.80397 l 35.68345,-0.27994 v -34.48264 -34.48265 h -35.54428 c -39.61002,0 -39.6059,5.8e-4 -44.39259,-6.27229 l -2.48039,-3.25052 -0.26443,-31.55189 c -0.21576,-25.74474 -0.006,-32.66835 1.14238,-37.61793 3.41961,-14.74505 12.26569,-24.017339 27.09526,-28.400703 5.20255,-1.537786 9.85375,-1.86845 31.65268,-2.250258 l 25.55396,-0.447576 V 60.302319 28.542579 l -37.06475,0.439712 c -32.8048,0.389174 -38.01727,0.653372 -45.35251,2.298716 -39.24758,8.803504 -63.44168,33.181026 -72.88049,73.432983 -1.21577,5.18467 -1.61768,14.03467 -2.06953,45.5709 -0.62641,43.71851 -0.59618,43.51694 -7.29345,48.62752 l -3.25049,2.48039 -31.1523,0.26507 -31.15229,0.26506 v 34.44048 34.44048 l 30.15827,0.28725 c 31.80039,0.30291 32.01622,0.33082 36.92202,4.77644 5.53273,5.01372 5.18365,-1.77702 5.46163,106.24463 l 0.25415,98.76258 h 35.88974 35.88972 z"
     id="path7"
     inkscape:connector-curvature="0"
     transform="translate(-110,1)" />
  <path
     style="fill:#000000;fill-opacity:1;stroke-width:0.92086321"
     d="m 200.27353,508.99043 c -4.95366,-1.76577 -9.7502,-5.85635 -13.00949,-11.09474 l -2.76259,-4.44009 -0.58978,-30.46306 c -0.32438,-16.75469 -0.63518,-59.92178 -0.69065,-95.92688 l -0.10087,-65.4638 -25.41297,-0.61734 c -13.97713,-0.33954 -27.21331,-1.07067 -29.41373,-1.62475 -4.94454,-1.24505 -10.67709,-6.03639 -14.01432,-11.71336 l -2.52588,-4.29678 v -46.04316 c 0,-25.32374 0.32767,-47.21854 0.72816,-48.65509 0.87959,-3.15513 8.26586,-11.25138 12.13494,-13.30136 2.28796,-1.21226 7.75008,-1.60153 30.27673,-2.15774 15.11683,-0.37327 27.59327,-0.81105 27.72542,-0.97288 0.13215,-0.16182 0.68776,-13.96904 1.23469,-30.68271 1.09738,-33.53496 2.02368,-40.80076 7.2787,-57.093518 14.9634,-46.392826 51.49276,-76.5276601 100.94697,-83.2760404 9.46635,-1.29175224 87.34355,-1.31231335 91.98122,-0.024285 4.5291,1.2578769 13.17453,9.2393984 14.71369,13.5837874 0.93339,2.634581 1.20967,13.299142 1.20967,46.694957 v 43.280569 l -2.44474,4.14389 c -3.00382,5.09152 -5.53914,7.47964 -10.90778,10.27444 -3.97318,2.06835 -5.41464,2.19748 -34.9928,3.13472 -19.98336,0.63321 -31.54457,1.35614 -32.824,2.05251 -3.43168,1.86779 -4.01053,5.81687 -4.01053,27.36116 v 20.44729 l 31.07914,0.6572 c 17.09352,0.36145 32.83685,1.09199 34.98515,1.6234 5.24675,1.29787 11.53176,7.0108 14.59034,13.2623 l 2.48465,5.07845 -0.67742,45.30605 c -0.49214,32.91408 -0.99348,46.06167 -1.83298,48.06865 -1.81941,4.34968 -5.88814,8.62382 -11.00091,11.55629 l -4.70711,2.6998 -20.71942,0.0123 c -11.39569,0.006 -26.00288,0.28184 -32.46043,0.61119 l -11.74101,0.5988 -0.10747,60.40465 c -0.0591,33.2226 -0.37218,76.35864 -0.69571,95.85792 -0.52131,31.42027 -0.77292,35.79227 -2.2119,38.43361 -2.7275,5.00653 -7.18623,9.45665 -11.83544,11.81257 l -4.42638,2.24302 -45.84356,-0.0404 c -36.56784,-0.0322 -46.56509,-0.29762 -49.4096,-1.31157 z m 85.17224,-90.50412 c 0.0604,-34.31367 0.37119,-79.45976 0.69065,-100.32464 l 0.58084,-37.93617 3.18218,-3.28147 c 1.7502,-1.80481 4.65092,-3.68949 6.44604,-4.1882 1.79513,-0.4987 13.04007,-0.90904 24.98877,-0.91185 11.9487,-0.003 27.38467,-0.27658 34.30216,-0.60834 l 12.57725,-0.60319 v -34.24711 -34.24712 l -35.61805,-0.65943 c -39.04412,-0.72286 -39.74473,-0.82322 -43.91523,-6.29103 l -2.42355,-3.17743 0.0226,-32.60373 c 0.0236,-34.19156 0.34769,-37.6734 4.2311,-45.45688 4.19166,-8.40127 10.88312,-14.103472 21.07013,-17.955093 4.97153,-1.879702 7.92428,-2.16598 29.46762,-2.856987 13.16834,-0.422372 25.28921,-0.790266 26.93525,-0.817542 l 2.99276,-0.04959 V 60.177975 28.08544 l -31.53957,0.366867 c -36.99371,0.43031 -47.02078,1.194912 -58.2446,4.441365 -32.15182,9.299816 -53.0967,30.093435 -63.51902,63.06029 -3.20592,10.140658 -3.88895,18.577258 -4.62226,57.093518 -0.33268,17.47338 -0.98086,33.84173 -1.44039,36.3741 -0.67015,3.69293 -1.59094,5.28785 -4.65184,8.05755 l -3.81629,3.45324 -22.2125,0.005 c -12.21688,0.003 -26.25279,0.27248 -31.19092,0.59949 l -8.97842,0.59455 v 34.25137 34.25138 l 11.74101,0.5988 c 6.45755,0.32935 19.2,0.61038 28.31654,0.62451 9.11655,0.0142 18.10938,0.38203 19.98408,0.81754 4.31405,1.0022 8.56454,4.34792 10.05214,7.91243 0.88258,2.11481 1.30381,24.67913 1.79639,96.23021 0.3539,51.40719 0.69174,95.85035 0.75075,98.76258 l 0.10729,5.29496 h 35.91366 35.91367 z"
     id="path9"
     inkscape:connector-curvature="0"
     transform="translate(-110,1)" />
</svg>
